<svg id="Layer_1" data-name="Layer 1" xmlns="http://www.w3.org/2000/svg" viewBox="0 0 271.99 102.05"><defs><style>.cls-1{fill:#fef5f4;}.cls-2{fill:#f89b54;}</style></defs><path class="cls-1" d="M92.64,22.39l-1.88-.29V20.9h3.15c.49,0,1.21,0,2.13-.09s1.63-.1,2.09-.1q4.47,0,6.64,2.24a8.69,8.69,0,0,1,2.17,6.3,10.86,10.86,0,0,1-1.12,5,8.23,8.23,0,0,1-3.13,3.42,8.71,8.71,0,0,1-4.63,1.23c-.38,0-1,0-2-.1s-1.68-.1-2.16-.1H90.64V37.56l2-.24Zm4.7,15.19h.72a6,6,0,0,0,3.18-.91A5.8,5.8,0,0,0,103.39,34a10.79,10.79,0,0,0,.77-4.29A8.75,8.75,0,0,0,102.51,24a6.08,6.08,0,0,0-5-2c-.47,0-1,0-1.66.09a4,4,0,0,1-.72.07V37.39A9.87,9.87,0,0,0,97.34,37.58Z"/><path class="cls-1" d="M112,37.87a7,7,0,0,1-2.56-3.18,12.33,12.33,0,0,1-.86-4.76,10.79,10.79,0,0,1,1-4.85,7.8,7.8,0,0,1,2.87-3.23,7.58,7.58,0,0,1,4.1-1.14,7.07,7.07,0,0,1,5.73,2.36,9.9,9.9,0,0,1,2,6.54,10.85,10.85,0,0,1-1.07,4.93,8,8,0,0,1-2.93,3.29A7.66,7.66,0,0,1,116.11,39,7.32,7.32,0,0,1,112,37.87ZM112.75,24a10.8,10.8,0,0,0-1.35,5.95,10.7,10.7,0,0,0,1.31,5.69,4.1,4.1,0,0,0,3.66,2.11A4.17,4.17,0,0,0,120,35.64a11,11,0,0,0,1.36-6,10.45,10.45,0,0,0-1.3-5.66,4.11,4.11,0,0,0-3.67-2A4.18,4.18,0,0,0,112.75,24Z"/><path class="cls-1" d="M126.16,37.56l2-.24V22.39l-1.88-.31V20.9h3.15c.45,0,1,0,1.82-.09s1.43-.1,1.87-.1c2.36,0,4,.38,5,1.14a4.22,4.22,0,0,1,1.5,3.59,5.46,5.46,0,0,1-1,3.12,4.71,4.71,0,0,1-2.6,1.92,4.11,4.11,0,0,1,1.43,1.4c.44.67,1,1.59,1.62,2.77.49.9.87,1.55,1.14,2s.51.65.75.7l.94.24v1.17h-3.31c-.26,0-.55-.27-.87-.83s-.74-1.4-1.27-2.55-1.07-2.27-1.5-3a3.38,3.38,0,0,0-1.26-1.43c-1.71,0-2.73,0-3.05,0v6.43l2.38.24v1.17h-6.94Zm9.84-9a4.37,4.37,0,0,0,.89-3,3.69,3.69,0,0,0-.9-2.67,4.22,4.22,0,0,0-3.11-.92,13.08,13.08,0,0,0-1.53.09l-.63,0v7.44c.24,0,.74,0,1.49,0h1.37A3,3,0,0,0,136,28.6Z"/><path class="cls-1" d="M148.92,22.17l-4.13.15-.84,5h-1.59l.41-6.43h14.95l.29,6.43H156.5l-.79-5-4.15-.15V37.32l3.4.24v1.17H145.8V37.56l3.12-.24Z"/><path class="cls-1" d="M161.66,22.39l-2-.29V20.9h12.22l.33,3.72h-1.36l-.7-2.33-6-.14v6.77l4-.07.33-2h1.32v5.52h-1.32l-.33-2.06-4-.07v7.15l6.77-.24,1.27-3,1.41.44L173,38.73H159.67V37.56l2-.24Z"/><path class="cls-2" d="M183,22.39l-2-.29V20.9h12.22l.33,3.72h-1.36l-.7-2.33-6-.14v6.77l4-.07.33-2h1.32v5.52h-1.32l-.33-2.06-4-.07v7.15l6.77-.24,1.27-3,1.41.44-.69,4.17H181V37.56l2-.24Z"/><path class="cls-2" d="M196.6,37.56l2-.24V22.39l-1.87-.31V20.9h3.15c.44,0,1,0,1.82-.09s1.42-.1,1.87-.1q3.52,0,5,1.14a4.22,4.22,0,0,1,1.5,3.59,5.54,5.54,0,0,1-1,3.12,4.71,4.71,0,0,1-2.6,1.92,4.11,4.11,0,0,1,1.43,1.4c.44.67,1,1.59,1.62,2.77.49.9.87,1.55,1.14,2s.51.65.75.7l.94.24v1.17h-3.31c-.26,0-.55-.27-.87-.83s-.74-1.4-1.27-2.55-1.08-2.27-1.5-3a3.38,3.38,0,0,0-1.26-1.43c-1.71,0-2.73,0-3.05,0v6.43l2.38.24v1.17H196.6Zm9.84-9a4.42,4.42,0,0,0,.89-3,3.69,3.69,0,0,0-.9-2.67,4.24,4.24,0,0,0-3.11-.92,13.08,13.08,0,0,0-1.53.09l-.63,0v7.44c.24,0,.74,0,1.49,0H204A3,3,0,0,0,206.44,28.6Z"/><path class="cls-2" d="M215.51,22.39l-1.92-.29V20.9h4.47l8,11.71,1.34,2.55V22.39l-2.08-.29V20.9H231v1.2l-1.92.29V38.73h-1.9l-8.16-12-1.84-3.17V37.32l2.28.24v1.17h-5.84V37.56l1.92-.27Z"/><path class="cls-2" d="M236.3,38.78c-.66-.14-1.38-.34-2.16-.58a4.26,4.26,0,0,0-1.08-.28l.19-4.35h1.54l.4,3.12a3.6,3.6,0,0,0,1.34.69,6.49,6.49,0,0,0,2,.3,4.19,4.19,0,0,0,2.78-.82,2.82,2.82,0,0,0,.94-2.26,2.55,2.55,0,0,0-.51-1.6,4.46,4.46,0,0,0-1.37-1.15,24,24,0,0,0-2.34-1.13,18,18,0,0,1-2.34-1.23A6,6,0,0,1,234,27.82a4.22,4.22,0,0,1-.73-2.5A4.16,4.16,0,0,1,234,23a4.75,4.75,0,0,1,2-1.64,7.5,7.5,0,0,1,3.11-.6,10.33,10.33,0,0,1,1.95.17c.57.11,1.21.26,1.93.45a4.64,4.64,0,0,0,.82.22l-.14,4H242.2l-.48-2.95a2.52,2.52,0,0,0-1-.46,6.21,6.21,0,0,0-1.65-.21,3.93,3.93,0,0,0-2.51.69,2.79,2.79,0,0,0-.33,3.63,4.57,4.57,0,0,0,1.28,1.1c.51.3,1.33.72,2.45,1.25s1.89.94,2.54,1.34a6,6,0,0,1,1.7,1.57,3.86,3.86,0,0,1,.7,2.32,4.71,4.71,0,0,1-.7,2.45,5.38,5.38,0,0,1-2.16,1.93,7.59,7.59,0,0,1-3.52.76A10,10,0,0,1,236.3,38.78Z"/><path class="cls-2" d="M252.79,22.17l-4.13.15-.84,5h-1.59l.41-6.43h14.95l.29,6.43h-1.51l-.79-5-4.15-.15V37.32l3.4.24v1.17h-9.16V37.56l3.12-.24Z"/><path class="cls-1" d="M140.53,53.77h-5.06v13h-1.4v-13H129V52.53h11.52Z"/><path class="cls-1" d="M142.65,66.73V52.53h6a3.77,3.77,0,0,1,1.68.38,4.58,4.58,0,0,1,1.33,1,5.12,5.12,0,0,1,.88,1.44,4.56,4.56,0,0,1,.31,1.61,4.78,4.78,0,0,1-.39,1.92,4.22,4.22,0,0,1-1.1,1.52,3.55,3.55,0,0,1-1.67.82l3.48,5.48h-1.58l-3.34-5.24h-4.2v5.24Zm1.4-6.48h4.64a2.38,2.38,0,0,0,1.46-.46,3,3,0,0,0,1-1.21,3.91,3.91,0,0,0,.34-1.59,3.34,3.34,0,0,0-.39-1.59,3.39,3.39,0,0,0-1-1.18,2.51,2.51,0,0,0-1.45-.45h-4.52Z"/><path class="cls-1" d="M162.55,52.53h9.62v1.24h-7.88v5.1h6.8v1.24h-6.8v5.38h8.06v1.24h-9.42V62.29h-5.18l-2.82,4.44h-1.52Zm.28,8.52V54.21l-4.44,6.84Z"/><path class="cls-1" d="M176.33,55.11V66.73h-1.4V52.53h1.16l9.32,11.84V52.55h1.4V66.73h-1.3Z"/><path class="cls-1" d="M190.37,66.73V52.53h1.4v14.2Z"/><path class="cls-1" d="M196.73,55.11V66.73h-1.4V52.53h1.16l9.32,11.84V52.55h1.4V66.73h-1.3Z"/><path class="cls-1" d="M216.47,66.83a5.76,5.76,0,0,1-2.64-.61,6.54,6.54,0,0,1-2.12-1.65,7.5,7.5,0,0,1-1.39-2.32,7.23,7.23,0,0,1-.49-2.64,7.55,7.55,0,0,1,.49-2.73,7.27,7.27,0,0,1,1.37-2.29A6.6,6.6,0,0,1,213.77,53a6,6,0,0,1,2.62-.58,6.19,6.19,0,0,1,3.42.86,5.67,5.67,0,0,1,2,2.24l-1.08.72a4.52,4.52,0,0,0-1.82-1.94,5.28,5.28,0,0,0-2.54-.62,4.52,4.52,0,0,0-2.13.5,5.16,5.16,0,0,0-1.63,1.34,5.84,5.84,0,0,0-1,1.9,6.8,6.8,0,0,0-.35,2.2,6.34,6.34,0,0,0,.4,2.27,5.64,5.64,0,0,0,1.14,1.9,5.25,5.25,0,0,0,1.71,1.3,4.61,4.61,0,0,0,2.09.47,4.92,4.92,0,0,0,2.46-.65,7.59,7.59,0,0,0,2.22-2v1.48A6,6,0,0,1,216.47,66.83Zm4.56-6h-3.16V59.75h4.34v7H221Z"/><path class="cls-2" d="M58,60.09h-.05c-8.25,0-16.69-8.56-16.86-24.78V35.2l0-.11c3.15-14.74,9.39-23.55,16.69-23.55h0c7.25,0,13.48,8.8,16.67,23.55l0,.11v.12C74.14,52.44,66,60.09,58,60.09ZM43.05,35.4c.19,14.85,7.61,22.66,14.87,22.69h0c6.77,0,14.17-7.1,14.5-22.69C69.53,21.91,63.9,13.54,57.77,13.54h0C51.59,13.54,46,21.92,43.05,35.4Z"/><path class="cls-2" d="M31,97.28c-3.55,0-6.43-1-8.41-3.13-4.82-5.12-2.92-15.33,5.08-27.3a9.69,9.69,0,0,1,1.71-1.95c12.36-10.68,23.22-9.76,28.49-4.11s5.73,16.95-5.69,28.45a9.24,9.24,0,0,1-2,1.52C42.78,95.08,36.14,97.28,31,97.28ZM47.67,58.67c-4.74,0-10.63,2.22-17,7.75A7.39,7.39,0,0,0,29.29,68C22,78.94,19.92,88.45,24,92.78S37.74,95.71,49.15,89a7.48,7.48,0,0,0,1.56-1.21h0C61.2,77.27,61,67.12,56.36,62.16A11.6,11.6,0,0,0,47.67,58.67Z"/><path class="cls-2" d="M83.6,97.65c-5.55,0-12.78-2.86-20.79-8.38l-.18-.15C51.12,76.39,51.88,65.19,57.74,59.73c6-5.63,18-5.19,29.25,6.51l.13.18c7.8,12.9,9.28,23.59,4,28.59A10.56,10.56,0,0,1,83.6,97.65ZM64,87.69c11.38,7.82,21.21,10.07,25.68,5.87s2.86-14.2-4.25-26c-10.31-10.7-21.06-11.3-26.37-6.36C54.14,65.82,53.57,76.07,64,87.69Z"/><path class="cls-2" d="M82.46,77.12h-.11C65.21,76.26,57.82,67.8,58.11,59.8c.29-8.25,9.06-16.45,25.28-16.08l.22,0c14.64,3.61,23.25,10.12,23,17.42S97.42,74.38,82.58,77.1Zm0-31.41c-14.33,0-22.07,7-22.32,14.16-.25,6.78,6.61,14.43,22.22,15.24,13.58-2.51,22.12-7.87,22.31-14s-8-12.07-21.4-15.39Z"/><path class="cls-2" d="M32.63,75.75h-1l-.22,0C16.81,72.1,8.2,65.59,8.43,58.3s9.21-13.21,24.06-15.94l.11,0h.12C49.85,43.2,57.24,51.66,57,59.67S48.23,75.75,32.63,75.75Zm-.81-2C46.69,74.05,54.7,66.84,55,59.6c.24-6.78-6.62-14.43-22.23-15.25-13.58,2.51-22.12,7.88-22.31,14S18.43,70.42,31.82,73.75Z"/></svg>