<svg id="Layer_1" data-name="Layer 1" xmlns="http://www.w3.org/2000/svg" viewBox="0 0 267.97 105.58"><defs><style>.cls-1{fill:#46494b;}.cls-2{fill:#f89b54;}.cls-3{fill:#0b4d5a;}</style></defs><path class="cls-1" d="M88.62,23.79l-1.88-.29V22.3h3.15c.49,0,1.21,0,2.13-.09s1.63-.1,2.09-.1q4.47,0,6.64,2.25a8.66,8.66,0,0,1,2.17,6.3,10.85,10.85,0,0,1-1.12,5,8.17,8.17,0,0,1-3.13,3.42A8.71,8.71,0,0,1,94,40.33c-.38,0-1,0-2-.1s-1.68-.09-2.16-.09H86.62V39l2-.24ZM93.32,39H94a5.86,5.86,0,0,0,3.18-.91,5.74,5.74,0,0,0,2.15-2.65,10.74,10.74,0,0,0,.77-4.28,8.75,8.75,0,0,0-1.65-5.76,6.06,6.06,0,0,0-4.95-2c-.47,0-1,0-1.66.09a4.05,4.05,0,0,1-.72.08V38.79A9.87,9.87,0,0,0,93.32,39Z"/><path class="cls-1" d="M108,39.27a7,7,0,0,1-2.56-3.18,12.29,12.29,0,0,1-.86-4.76,10.79,10.79,0,0,1,1-4.85,7.86,7.86,0,0,1,2.87-3.23,7.58,7.58,0,0,1,4.1-1.14,7,7,0,0,1,5.73,2.37,9.86,9.86,0,0,1,2,6.54A10.88,10.88,0,0,1,119.18,36a8.09,8.09,0,0,1-2.93,3.29,7.74,7.74,0,0,1-4.16,1.16A7.32,7.32,0,0,1,108,39.27Zm.78-13.88a10.74,10.74,0,0,0-1.35,5.94,10.74,10.74,0,0,0,1.31,5.7,4.09,4.09,0,0,0,3.66,2.1A4.17,4.17,0,0,0,116,37a11,11,0,0,0,1.36-6,10.39,10.39,0,0,0-1.3-5.65,4.12,4.12,0,0,0-3.67-2A4.19,4.19,0,0,0,108.73,25.39Z"/><path class="cls-1" d="M122.14,39l2-.24V23.79l-1.88-.31V22.3h3.15c.45,0,1,0,1.82-.09s1.43-.1,1.87-.1c2.36,0,4,.38,5,1.14a4.22,4.22,0,0,1,1.5,3.59,5.41,5.41,0,0,1-.95,3.12,4.71,4.71,0,0,1-2.6,1.92,4.11,4.11,0,0,1,1.43,1.4c.44.67,1,1.59,1.62,2.78.49.89.87,1.55,1.14,2s.51.65.75.7L138,39v1.18h-3.31c-.26,0-.55-.28-.87-.83s-.74-1.41-1.27-2.56-1.08-2.27-1.5-3a3.44,3.44,0,0,0-1.26-1.43c-1.71,0-2.73,0-3,0v6.43l2.38.24v1.18h-6.94ZM132,30a4.37,4.37,0,0,0,.89-3,3.7,3.7,0,0,0-.9-2.68,4.26,4.26,0,0,0-3.11-.92,13.08,13.08,0,0,0-1.53.09,5.52,5.52,0,0,1-.63.05V31c.24,0,.74,0,1.49,0h1.37A3.07,3.07,0,0,0,132,30Z"/><path class="cls-1" d="M144.9,23.58l-4.13.14-.84,5h-1.59l.41-6.44H153.7l.29,6.44h-1.51l-.79-5-4.15-.14V38.72l3.4.24v1.18h-9.16V39l3.12-.24Z"/><path class="cls-1" d="M157.64,23.79l-2-.29V22.3h12.22l.33,3.72h-1.36l-.7-2.32-5.95-.15v6.77l4-.07.33-2h1.32v5.52h-1.32l-.33-2.07-4-.07v7.15l6.77-.24,1.27-3,1.41.43L169,40.14H155.65V39l2-.24Z"/><path class="cls-2" d="M179,23.79l-2-.29V22.3H189.2l.33,3.72h-1.36l-.7-2.32-5.95-.15v6.77l4-.07.33-2h1.32v5.52h-1.32l-.33-2.07-4-.07v7.15l6.77-.24,1.27-3L191,36l-.69,4.18H177V39l2-.24Z"/><path class="cls-2" d="M192.58,39l2-.24V23.79l-1.87-.31V22.3h3.15c.44,0,1.05,0,1.82-.09s1.43-.1,1.87-.1q3.53,0,5,1.14a4.22,4.22,0,0,1,1.5,3.59,5.49,5.49,0,0,1-.95,3.12,4.71,4.71,0,0,1-2.6,1.92,4.11,4.11,0,0,1,1.43,1.4c.44.67,1,1.59,1.62,2.78.49.89.87,1.55,1.14,2s.51.65.75.7l.94.24v1.18h-3.31c-.26,0-.55-.28-.87-.83s-.74-1.41-1.27-2.56-1.08-2.27-1.5-3a3.44,3.44,0,0,0-1.26-1.43c-1.71,0-2.73,0-3.05,0v6.43l2.38.24v1.18h-6.94ZM202.42,30a4.42,4.42,0,0,0,.89-3,3.7,3.7,0,0,0-.9-2.68,4.28,4.28,0,0,0-3.11-.92,13.08,13.08,0,0,0-1.53.09,5.52,5.52,0,0,1-.63.05V31c.24,0,.74,0,1.49,0H200A3.07,3.07,0,0,0,202.42,30Z"/><path class="cls-2" d="M211.49,23.79l-1.92-.29V22.3H214L222,34l1.34,2.54V23.79l-2.08-.29V22.3H227v1.2l-1.92.29V40.14h-1.9l-8.16-12L213.13,25V38.72l2.28.24v1.18h-5.84V39l1.92-.26Z"/><path class="cls-2" d="M232.28,40.18q-1-.21-2.16-.57a4.38,4.38,0,0,0-1.08-.29l.19-4.34h1.54l.4,3.12a3.76,3.76,0,0,0,1.34.68,6.49,6.49,0,0,0,2,.3,4.14,4.14,0,0,0,2.78-.82,2.8,2.8,0,0,0,.94-2.25,2.58,2.58,0,0,0-.51-1.61,4.46,4.46,0,0,0-1.37-1.15c-.57-.32-1.35-.7-2.34-1.13a19.33,19.33,0,0,1-2.34-1.22A6.23,6.23,0,0,1,230,29.23a4.25,4.25,0,0,1-.73-2.51,4.1,4.1,0,0,1,.71-2.36,4.7,4.7,0,0,1,2-1.65,7.5,7.5,0,0,1,3.11-.6,10.33,10.33,0,0,1,1.95.17c.57.11,1.21.26,1.93.46a4.49,4.49,0,0,0,.82.21l-.14,4h-1.47L237.7,24a2.41,2.41,0,0,0-1-.45,5.83,5.83,0,0,0-1.65-.22,3.87,3.87,0,0,0-2.51.7,2.78,2.78,0,0,0-.33,3.62,4.57,4.57,0,0,0,1.28,1.1c.51.31,1.33.72,2.45,1.25s1.89.95,2.54,1.35a5.89,5.89,0,0,1,1.7,1.57,3.83,3.83,0,0,1,.7,2.31,4.68,4.68,0,0,1-.7,2.45A5.31,5.31,0,0,1,238,39.64a7.47,7.47,0,0,1-3.52.76A10,10,0,0,1,232.28,40.18Z"/><path class="cls-2" d="M248.77,23.58l-4.13.14-.84,5h-1.59l.41-6.44h14.95l.29,6.44h-1.51l-.79-5-4.15-.14V38.72l3.4.24v1.18h-9.16V39l3.12-.24Z"/><path class="cls-1" d="M136.51,55.18h-5.06v13h-1.4v-13H125V53.94h11.52Z"/><path class="cls-1" d="M138.63,68.14V53.94h6a3.64,3.64,0,0,1,1.68.38,4.26,4.26,0,0,1,1.33,1,4.85,4.85,0,0,1,.88,1.44,4.47,4.47,0,0,1,.31,1.61,4.78,4.78,0,0,1-.39,1.92,4.31,4.31,0,0,1-1.1,1.52,3.75,3.75,0,0,1-1.67.82l3.48,5.48h-1.58l-3.34-5.24H140v5.24Zm1.4-6.48h4.64a2.44,2.44,0,0,0,1.46-.46,3.12,3.12,0,0,0,1-1.21,3.91,3.91,0,0,0,.34-1.59A3.36,3.36,0,0,0,146,55.63a2.51,2.51,0,0,0-1.45-.45H140Z"/><path class="cls-1" d="M158.53,53.94h9.62v1.24h-7.88v5.1h6.8v1.24h-6.8V66.9h8.06v1.24h-9.42V63.7h-5.18l-2.82,4.44h-1.52Zm.28,8.52V55.62l-4.44,6.84Z"/><path class="cls-1" d="M172.31,56.52V68.14h-1.4V53.94h1.16l9.32,11.84V54h1.4V68.14h-1.3Z"/><path class="cls-1" d="M186.35,68.14V53.94h1.4v14.2Z"/><path class="cls-1" d="M192.71,56.52V68.14h-1.4V53.94h1.16l9.32,11.84V54h1.4V68.14h-1.3Z"/><path class="cls-1" d="M212.45,68.24a5.89,5.89,0,0,1-2.64-.61A6.82,6.82,0,0,1,207.69,66a7.74,7.74,0,0,1-1.39-2.32,7.31,7.31,0,0,1-.49-2.64,7.55,7.55,0,0,1,.49-2.73A7.16,7.16,0,0,1,207.67,56a6.32,6.32,0,0,1,2.08-1.58,5.88,5.88,0,0,1,2.62-.58,6.11,6.11,0,0,1,3.42.86,5.6,5.6,0,0,1,2,2.24l-1.08.72a4.46,4.46,0,0,0-1.82-1.94,5.16,5.16,0,0,0-2.54-.62,4.41,4.41,0,0,0-2.13.5,5,5,0,0,0-1.63,1.34,5.74,5.74,0,0,0-1,1.9,6.76,6.76,0,0,0-.35,2.2,6.38,6.38,0,0,0,.4,2.27,5.84,5.84,0,0,0,1.14,1.9,5.55,5.55,0,0,0,1.71,1.3,4.74,4.74,0,0,0,2.09.47,5,5,0,0,0,2.46-.65,7.88,7.88,0,0,0,2.22-2V65.8A6.07,6.07,0,0,1,212.45,68.24Zm4.56-6h-3.16V61.16h4.34v7H217Z"/><path class="cls-3" d="M53.94,61.49h0c-8.25,0-16.69-8.56-16.86-24.77V36.6l0-.1C40.2,21.75,46.44,13,53.74,12.94h0c7.25,0,13.48,8.8,16.67,23.55l0,.11v.12C70.12,53.84,61.93,61.49,53.94,61.49ZM39,36.81c.19,14.85,7.61,22.65,14.87,22.68h0c6.77,0,14.17-7.09,14.5-22.69-2.93-13.49-8.56-21.86-14.69-21.86h0C47.57,15,41.93,23.32,39,36.81Z"/><path class="cls-3" d="M26.93,98.68c-3.55,0-6.43-1-8.41-3.13-4.82-5.12-2.92-15.33,5.08-27.3a9.67,9.67,0,0,1,1.71-1.94c12.36-10.68,23.22-9.76,28.49-4.12s5.73,17-5.69,28.46h0a9.57,9.57,0,0,1-2,1.52C38.76,96.48,32.12,98.68,26.93,98.68ZM43.66,60.07c-4.75,0-10.64,2.22-17,7.75a7.74,7.74,0,0,0-1.36,1.54c-7.33,11-9.36,20.49-5.28,24.82s13.75,2.93,25.15-3.74a7.79,7.79,0,0,0,1.56-1.2h0C57.18,78.67,57,68.52,52.34,63.56A11.59,11.59,0,0,0,43.66,60.07Z"/><path class="cls-3" d="M79.59,99.05c-5.55,0-12.79-2.85-20.8-8.38l-.18-.15C47.1,77.8,47.86,66.59,53.72,61.13c6-5.62,18-5.19,29.25,6.51l.13.18c7.8,12.9,9.28,23.59,4,28.59A10.55,10.55,0,0,1,79.59,99.05ZM60,89.09C71.4,96.91,81.23,99.16,85.7,95s2.86-14.2-4.25-26c-10.31-10.7-21.06-11.3-26.37-6.36C50.12,67.22,49.56,77.48,60,89.09Z"/><path class="cls-3" d="M78.44,78.53h-.11C61.19,77.66,53.8,69.2,54.09,61.2c.29-8.24,9.07-16.41,25.28-16.08l.22,0c14.64,3.61,23.25,10.12,23,17.42S93.4,75.78,78.56,78.5Zm0-31.42c-14.33,0-22.06,7-22.31,14.16-.24,6.78,6.61,14.43,22.22,15.25,13.58-2.52,22.12-7.88,22.31-14s-8-12.07-21.4-15.39Z"/><path class="cls-3" d="M28.62,77.16h-1l-.22,0C12.79,73.51,4.19,67,4.41,59.7s9.21-13.21,24.06-15.93l.11,0h.12c17.13.86,24.52,9.32,24.24,17.32S44.21,77.16,28.62,77.16Zm-.82-2h.82c14.33,0,22.07-7,22.32-14.16.24-6.78-6.62-14.43-22.23-15.25-13.58,2.52-22.12,7.88-22.31,14S14.41,71.83,27.8,75.15Z"/></svg>